<svg xmlns="http://www.w3.org/2000/svg" width="200.52395629882812" height="66.83724975585938" viewBox="-79.02396392822266 -33.89154052734375 200.52395629882812 66.83724975585938"><title>Neo4j Graph Visualization</title><desc>Created using Neo4j (http://www.neo4j.com/)</desc><g class="layer relationships"><g class="relationship" transform="translate(-50.023964206644784 -0.28067580397811515) rotate(359.84235288092054)"><path class="b-outline" fill="#A5ABB6" stroke="none" d="M 21.40063509461097,-12.933012701892217 L 21.90063509461097,-12.06698729810778 A 95.92371490418513 95.92371490418513 0 0 1 41.062031238113406,-20.492659844480954 L 40.761787848484914,-21.446522469277838 A 96.92371490418513 96.92371490418513 0 0 0 21.40063509461097,-12.933012701892217 Z M 94.57787723107958,-22.714175201703412 L 94.32287890885463,-21.747233706233047 A 95.92371490418513 95.92371490418513 0 0 1 113.8597413387958,-14.233109244894223 L 112.4837338884159,-11.56728788994581 L 120.30932574207208,-11.466728753165844 L 115.69441793930234,-17.787537718158774 L 114.31841048892244,-15.12171636321036 A 96.92371490418513 96.92371490418513 0 0 0 94.57787723107958,-22.714175201703412"/><text text-anchor="middle" pointer-events="none" font-size="8px" fill="#000000" x="67.59183537028295" y="-22.39158900245006" font-family="Helvetica Neue, Helvetica, Arial, sans-serif">COLLEAGUE</text></g><g class="relationship" transform="translate(-50.023964206644784 -0.28067580397811515) rotate(359.84235288092054)"><path class="b-outline" fill="#A5ABB6" stroke="none" d="M 25 0.5 L 40.62891864381096 0.5 L 40.62891864381096 -0.5 L 25 -0.5 Z M 94.89558505616448 0.5 L 110.52450369997544 0.5 L 110.52450369997544 3.5 L 117.52450369997544 0 L 110.52450369997544 -3.5 L 110.52450369997544 -0.5 L 94.89558505616448 -0.5 Z"/><text text-anchor="middle" pointer-events="none" font-size="8px" fill="#000000" x="67.76225184998772" y="3" font-family="Helvetica Neue, Helvetica, Arial, sans-serif">COLLEAGUE</text></g><g class="relationship" transform="translate(-50.023964206644784 -0.28067580397811515) rotate(359.84235288092054)"><path class="b-outline" fill="#A5ABB6" stroke="none" d="M 21.40063509461097,12.933012701892217 L 21.90063509461097,12.06698729810778 A 95.92371490418513 95.92371490418513 0 0 0 41.06203123811342,20.492659844480954 L 40.76178784848493,21.446522469277838 A 96.92371490418513 96.92371490418513 0 0 1 21.40063509461097,12.933012701892217 Z M 94.57787723107957,22.714175201703412 L 94.32287890885462,21.747233706233047 A 95.92371490418513 95.92371490418513 0 0 0 113.8597413387958,14.233109244894223 L 112.4837338884159,11.56728788994581 L 120.30932574207208,11.466728753165844 L 115.69441793930234,17.787537718158774 L 114.31841048892244,15.12171636321036 A 96.92371490418513 96.92371490418513 0 0 1 94.57787723107957,22.714175201703412"/><text text-anchor="middle" pointer-events="none" font-size="8px" fill="#000000" x="67.59183537028295" y="28.39158900245006" font-family="Helvetica Neue, Helvetica, Arial, sans-serif">COLLEAGUE</text></g></g><g class="layer nodes"><g class="node" aria-label="graph-node516" transform="translate(-50.023964206644784,-0.28067580397811515)"><circle class="b-outline" cx="0" cy="0" r="25" fill="#A5ABB6" stroke="#9AA1AC" stroke-width="2px"/><text class="caption" text-anchor="middle" pointer-events="none" x="0" y="0" font-size="10px" fill="#FFFFFF" font-family="Helvetica Neue, Helvetica, Arial, sans-serif"> Keanu</text><text class="caption" text-anchor="middle" pointer-events="none" x="0" y="10" font-size="10px" fill="#FFFFFF" font-family="Helvetica Neue, Helvetica, Arial, sans-serif"> Reeves</text></g><g class="node" aria-label="graph-node518" transform="translate(92.5,-0.6728259631629925)"><circle class="b-outline" cx="0" cy="0" r="25" fill="#A5ABB6" stroke="#9AA1AC" stroke-width="2px"/><text class="caption" text-anchor="middle" pointer-events="none" x="0" y="5" font-size="10px" fill="#FFFFFF" font-family="Helvetica Neue, Helvetica, Arial, sans-serif">Fi…</text></g></g></svg>