<svg xmlns="http://www.w3.org/2000/svg" width="227.70697021484375" height="74.24281311035156" viewBox="-107.5 -54.7206916809082 227.70697021484375 74.24281311035156"><title>Neo4j Graph Visualization</title><desc>Created using Neo4j (http://www.neo4j.com/)</desc><g class="layer relationships"><g class="relationship" transform="translate(-78.5 -17.97938723790776) rotate(360.26024322125045)"><path class="b-outline" fill="#A5ABB6" stroke="none" d="M 21.40063509461097,-12.933012701892217 L 21.90063509461097,-12.06698729810778 A 123.55635876328108 123.55635876328108 0 0 1 55.814402556823126,-25.437412366886875 L 55.588882703386744,-26.41165093916065 A 124.55635876328108 124.55635876328108 0 0 0 21.40063509461097,-12.933012701892217 Z M 106.91577901753061,-27.433686686803867 L 106.72922118321368,-26.451242706489978 A 123.55635876328108 123.55635876328108 0 0 1 141.1483661179709,-14.441482011080133 L 139.75298139920082,-11.78575207627447 L 147.57763341897916,-11.628205989750846 L 143.00887907633106,-17.982455257487683 L 141.61349435756097,-15.32672532268202 A 124.55635876328108 124.55635876328108 0 0 0 106.91577901753061,-27.433686686803867"/><text text-anchor="middle" pointer-events="none" font-size="8px" fill="#000000" x="81.20905858042828" y="-26.095813769524653" font-family="Helvetica Neue, Helvetica, Arial, sans-serif">PRODUCED</text></g><g class="relationship" transform="translate(-78.5 -17.97938723790776) rotate(360.26024322125045)"><path class="b-outline" fill="#A5ABB6" stroke="none" d="M 25 0.5 L 57.93769207362941 0.5 L 57.93769207362941 -0.5 L 25 -0.5 Z M 104.77102413539698 0.5 L 137.7087162090264 0.5 L 137.7087162090264 3.5 L 144.7087162090264 0 L 137.7087162090264 -3.5 L 137.7087162090264 -0.5 L 104.77102413539698 -0.5 Z"/><text text-anchor="middle" pointer-events="none" font-size="8px" fill="#000000" x="81.3543581045132" y="3" font-family="Helvetica Neue, Helvetica, Arial, sans-serif">DIRECTED</text></g><g class="relationship" transform="translate(-78.5 -17.97938723790776) rotate(360.26024322125045)"><path class="b-outline" fill="#A5ABB6" stroke="none" d="M 21.40063509461097,12.933012701892217 L 21.90063509461097,12.06698729810778 A 123.55635876328108 123.55635876328108 0 0 0 58.79823697140171,26.089372439031322 L 58.596866699941074,27.068887632263085 A 124.55635876328108 124.55635876328108 0 0 1 21.40063509461097,12.933012701892217 Z M 103.88401560749492,27.970658212916874 L 103.72179826803621,26.983903159836856 A 123.55635876328108 123.55635876328108 0 0 0 141.1483661179709,14.441482011080133 L 139.75298139920082,11.78575207627447 L 147.57763341897916,11.628205989750846 L 143.00887907633106,17.982455257487683 L 141.61349435756097,15.32672532268202 A 124.55635876328108 124.55635876328108 0 0 1 103.88401560749492,27.970658212916874"/><text text-anchor="middle" pointer-events="none" font-size="8px" fill="#000000" x="81.20905858042826" y="32.09581376952465" font-family="Helvetica Neue, Helvetica, Arial, sans-serif">ACTED_IN</text></g></g><g class="layer nodes"><g class="node" aria-label="graph-node265" transform="translate(91.20696560874909,-17.20855574743628)"><circle class="b-outline" cx="0" cy="0" r="25" fill="#A5ABB6" stroke="#9AA1AC" stroke-width="2px"/><text class="caption" text-anchor="middle" pointer-events="none" x="0" y="5" font-size="10px" fill="#FFFFFF" font-family="Helvetica Neue, Helvetica, Arial, sans-serif"> Movie</text></g><g class="node" aria-label="graph-node263" transform="translate(-78.5,-17.97938723790776)"><circle class="b-outline" cx="0" cy="0" r="25" fill="#D9C8AE" stroke="#c0a378" stroke-width="2px"/><text class="caption" text-anchor="middle" pointer-events="none" x="0" y="5" font-size="10px" fill="#2A2C34" font-family="Helvetica Neue, Helvetica, Arial, sans-serif"> Person</text></g></g></svg>